<svg xmlns="http://www.w3.org/2000/svg" version="1.2" baseProfile="tiny" viewBox="0 0 125.9 31.1"><path fill="#0E1131" d="M33.2 21.3c0 .6.3 1.1.8 1.1.8 0 2.1-.8 2.1-2.2 0-.7-.3-1.1-.8-1.1-1 0-2.1 1.1-2.1 2.2m.9-.2c0-.9.4-1.7.7-1.7.2 0 .4.4.4.9 0 .9-.4 1.7-.7 1.7-.2.1-.4-.3-.4-.9m3.9-1.5h.5l.1-.4H38l.1-.8c.1-.7.2-.9.4-.9.3 0 .4.5.9.5.2 0 .4-.2.4-.4 0-.3-.3-.4-.7-.4-1 0-1.7.9-1.8 2-.1.1-.4.2-.6.2v.2h.6l-.7 3.4c-.1.5-.3.8-.5.8-.4 0-.3-.6-.8-.6-.2 0-.4.2-.4.4 0 .3.3.5.8.5s.9-.2 1.2-.5c.5-.5.7-1 .8-1.6l.3-2.4zm5.5 2.7h1l2.2-5.4h-1.3L44 20.5l-1.3-3.6h-1.4l2.2 5.4zm4.2 0h3.8v-1.1h-2.6v-1.1h2.4V19h-2.4v-1h2.5v-1.1h-3.7v5.4zm6.2 0h1.2V18h1.5v-1.1h-4.3V18h1.5v4.3zm3.8 0h3.8v-1.1h-2.6v-1.1h2.4V19h-2.4v-1h2.5v-1.1h-3.7v5.4zm5.2 0h1.2v-2.2h.6l1.1 2.2h1.4L65.9 20c.8-.1 1.2-.7 1.2-1.5 0-1.3-.9-1.6-2-1.6H63v5.4zm1.2-4.4h.8c.4 0 .9.1.9.6 0 .6-.6.6-1 .6h-.7v-1.2zm3.6 4.4H69l.5-1.1h2.1l.5 1.1h1.3L71 16.9h-1l-2.3 5.4zm3.5-2.1h-1.3l.7-1.7.6 1.7zm3.2 2.1h1.2v-3.9l2.4 3.9h1.6v-5.4h-1.2v3.8L76 16.9h-1.6v5.4zm10.1-5c-.5-.4-1-.6-1.7-.6-1.1 0-2.1.6-2.1 1.8 0 1.8 2.5 1.3 2.5 2.3 0 .4-.4.6-.8.6s-.8-.2-1-.5l-.9.9c.5.5 1.1.7 1.8.7 1.1 0 2.1-.6 2.1-1.8 0-1.9-2.5-1.3-2.5-2.3 0-.4.5-.6.8-.6.3 0 .7.1.9.4l.9-.9zm2.7-.4h-1.1l-.6 2.2h1l.7-2.2zm2.8 5.4h1.3l.5-1.1h2.1l.5 1.1h1.3l-2.4-5.4h-1L90 22.3zm3.4-2.1h-1.3l.7-1.7.6 1.7zm3.3 2.1h1.2v-2.1h2.3v-1.1h-2.3V18h2.4v-1.1h-3.6v5.4zm4.9 0h1.2v-2.1h2.3v-1.1h-2.3V18h2.4v-1.1h-3.6v5.4zm3.9 0h1.3l.5-1.1h2.1l.5 1.1h1.3l-2.4-5.4h-1l-2.3 5.4zm3.5-2.1h-1.3l.7-1.7.6 1.7zm3.2 2.1h1.2v-5.4h-1.2v5.4zm2.6 0h1.2v-2.2h.6l1.1 2.2h1.4l-1.4-2.3c.8-.1 1.2-.7 1.2-1.5 0-1.3-.9-1.6-2-1.6h-2.1v5.4zm1.2-4.4h.8c.4 0 .9.1.9.6 0 .6-.6.6-1 .6h-.7v-1.2zm7.7-.6c-.5-.4-1-.6-1.7-.6-1.1 0-2.1.6-2.1 1.8 0 1.8 2.5 1.3 2.5 2.3 0 .4-.4.6-.8.6s-.8-.2-1-.5l-.9.9c.5.5 1.1.7 1.8.7 1.1 0 2.1-.6 2.1-1.8 0-1.9-2.5-1.3-2.5-2.3 0-.4.5-.6.8-.6.3 0 .7.1.9.4l.9-.9zm-90.5-6.9c0 1.7 1.2 2.8 2.9 2.8s2.9-1.1 2.9-2.8c0-1.7-1.2-2.8-2.9-2.8s-2.9 1.1-2.9 2.8m1.3 0c0-1 .7-1.7 1.7-1.7s1.7.7 1.7 1.7-.7 1.7-1.7 1.7c-1.1.1-1.7-.7-1.7-1.7m5.5 2.7h1.2V11h.6l1.1 2.2h1.4l-1.4-2.3c.8-.1 1.2-.7 1.2-1.5 0-1.3-.9-1.6-2-1.6H40v5.3zm1.2-4.4h.8c.4 0 .9.1.9.6 0 .6-.6.6-1 .6h-.7V8.7zm3.9 4.4h3.8V12h-2.6v-1.1h2.4V9.8h-2.4v-1h2.5V7.7h-3.7v5.4zm9.7-3.2h-2.1V11h1v.9c-.2.1-.6.3-1.1.3-1 0-1.7-.7-1.7-1.7s.7-1.7 1.7-1.7c.6 0 1 .2 1.3.5l.8-.9c-.5-.5-1.3-.7-2.2-.7-1.7 0-2.9 1.1-2.9 2.8 0 1.7 1.2 2.8 2.9 2.8.8 0 1.6-.2 2.3-.5V9.9zm.9.5c0 1.7 1.2 2.8 2.9 2.8s2.9-1.1 2.9-2.8c0-1.7-1.2-2.8-2.9-2.8s-2.9 1.1-2.9 2.8m1.2 0c0-1 .7-1.7 1.7-1.7s1.7.7 1.7 1.7-.7 1.7-1.7 1.7c-1 .1-1.7-.7-1.7-1.7m5.5 2.7h1.2V9.3l2.4 3.9h1.6V7.7h-1.2v3.8L64 7.7h-1.6v5.4zm8.7 0h2c1.6 0 3-.9 3-2.7 0-2-1.5-2.7-3.2-2.7h-1.8v5.4zm1.2-4.3h.7c1 0 1.9.5 1.9 1.6 0 1.2-.8 1.7-1.9 1.7h-.6V8.8zm4.7 4.3h3.8V12h-2.6v-1.1h2.4V9.8h-2.4v-1h2.5V7.7H77v5.4zm4.9 0h1.2V11h.9c1.1 0 2-.4 2-1.7 0-1.3-.9-1.6-2.1-1.6h-2v5.4zm1.2-4.4h.6c.5 0 1 .1 1 .6s-.4.6-.8.6h-.8V8.7zm2.4 4.4h1.3l.5-1.1h2.1l.5 1.1h1.3l-2.4-5.4h-1l-2.3 5.4zM89 11h-1.3l.7-1.7.6 1.7zm2.9 2.1H93V11h.6l1.1 2.2h1.4l-1.4-2.3c.8-.1 1.2-.7 1.2-1.5 0-1.3-.9-1.6-2-1.6h-2.1v5.3zM93 8.7h.8c.4 0 .9.1.9.6 0 .6-.6.6-1 .6H93V8.7zm4.8 4.4H99V8.8h1.5V7.7h-4.3v1.1h1.5v4.3zm3.4 0h1.2V9l1.4 4.2h.9l1.4-4.2v4.2h1.2V7.7h-1.8l-1.3 3.5-1.2-3.5h-1.8v5.4zm7.4 0h3.8V12h-2.6v-1.1h2.4V9.8h-2.4v-1h2.5V7.7h-3.7v5.4zm4.9 0h1.2V9.3l2.4 3.9h1.6V7.7h-1.2v3.8l-2.3-3.8h-1.6v5.4zm7.3 0h1.2V8.8h1.5V7.7h-4.3v1.1h1.5v4.3z"/><path fill="#B34626" d="M16.6 8.1h2.6l-2.1 1.6.8 2.6-2.1-1.6-2.1 1.6.8-2.6-2.1-1.6H15l.8-2.5.8 2.5zm1.2 18.3c3-4.5 6.7-7.8 9-9.4-.7 4.8-4.4 8.6-9 9.4M4.7 17c2.6 1.8 5.9 4.7 9 9.5-4.7-.9-8.3-4.7-9-9.5m10.9 4.5l.2.2.1-.3c3-5.1 8-8.3 10.3-9.5.2.4.3.9.4 1.4-2.7 1.7-8.2 5.6-10.8 10.6-2.8-5-5.9-7.6-10.9-10.6.1-.5.2-.9.4-1.4 2.3 1.3 6.9 4.4 10.3 9.6m.1-17c3.7 0 6.9 1.8 8.9 4.5-2.3 1.2-6.5 3.8-8.9 7.5-2.6-3.6-5.3-5.4-8.9-7.6 2.1-2.7 5.3-4.4 8.9-4.4m0-3.3C7.8 1.2 1.4 7.6 1.4 15.5s6.4 14.3 14.3 14.3S30 23.4 30 15.5c.1-7.9-6.4-14.3-14.3-14.3"/></svg>